<svg width="387" height="495" viewBox="0 0 387 495" fill="none" xmlns="http://www.w3.org/2000/svg">
<path fill-rule="evenodd" clip-rule="evenodd" d="M185.311 494.797C185.141 494.785 184.971 494.773 184.799 494.76C184.799 494.76 134.299 334.556 37.7988 220.027C118.299 299.047 191.299 458.487 193.299 468.089C203.017 400.288 240.607 291.545 273.299 232.03C305.99 172.515 329.299 137.506 346.299 115C329.657 142.127 278.953 245.533 252.799 313.55C226.645 381.568 210.299 446.084 205.799 493.596C205.699 493.619 205.596 493.641 205.492 493.664C299.573 475.001 419.828 263.022 378.299 -0.00012207C241.721 77.5625 195.618 231.73 187.038 357.846C163.157 263.019 99.5369 171.608 0.0689659 155C-2.64487 329.831 75.0041 488.354 185.311 494.797Z" fill="#C5EDC5"/>
<path fill-rule="evenodd" clip-rule="evenodd" d="M187.378 453.436C190.931 461.406 192.986 466.586 193.299 468.089C203.017 400.288 240.607 291.545 273.299 232.03C305.99 172.515 329.299 137.506 346.299 115C329.657 142.127 278.953 245.533 252.799 313.55C226.645 381.568 210.299 446.084 205.799 493.596C205.697 493.619 205.593 493.642 205.487 493.665C299.569 475.009 419.829 263.027 378.299 -0.00012207C204.125 98.9137 177.093 322.413 187.378 453.436Z" fill="#A6C8A5"/>
</svg>
